<svg width="3256" height="614" viewBox="0 0 3256 614" fill="none" xmlns="http://www.w3.org/2000/svg">
<ellipse cx="499.753" cy="433.907" rx="110" ry="142.522" transform="rotate(39.8202 499.753 433.907)" fill="#FDC0D0"/>
<circle cx="425.141" cy="384.982" r="9.88406" transform="rotate(39.8202 425.141 384.982)" fill="#FFEBAF"/>
<circle cx="555.421" cy="493.605" r="9.88406" transform="rotate(39.8202 555.421 493.605)" fill="#FFEBAF"/>
<circle cx="483.339" cy="447.618" r="9.88406" transform="rotate(39.8202 483.339 447.618)" fill="#FFEBAF"/>
<circle cx="543.758" cy="444.859" r="9.88406" transform="rotate(39.8202 543.758 444.859)" fill="#FFEBAF"/>
<circle cx="543.857" cy="381.011" r="9.88406" transform="rotate(39.8202 543.857 381.011)" fill="#FFEBAF"/>
<circle cx="509.739" cy="339.28" r="9.88406" transform="rotate(39.8202 509.739 339.28)" fill="#FFEBAF"/>
<circle cx="425.761" cy="516.677" r="9.88406" transform="rotate(39.8202 425.761 516.677)" fill="#FFEBAF"/>
<circle cx="417.451" cy="444.989" r="9.88406" transform="rotate(39.8202 417.451 444.989)" fill="#FFEBAF"/>
<circle cx="491.897" cy="507.06" r="9.88406" transform="rotate(39.8202 491.897 507.06)" fill="#FFEBAF"/>
<circle cx="592.758" cy="401.027" r="9.88406" transform="rotate(39.8202 592.758 401.027)" fill="#FFEBAF"/>
<circle cx="484.495" cy="395.446" r="9.88406" transform="rotate(39.8202 484.495 395.446)" fill="#FFEBAF"/>
<ellipse cx="3160.43" cy="426.752" rx="73.3275" ry="95.007" transform="rotate(15 3160.43 426.752)" fill="#B991DA"/>
<ellipse cx="3106.82" cy="423.929" rx="8.07665" ry="6.37631" transform="rotate(15 3106.82 423.929)" fill="#DCF9A8"/>
<ellipse cx="3119.31" cy="423.312" rx="8.07665" ry="6.37631" transform="rotate(15 3119.31 423.312)" fill="#DCF9A8"/>
<ellipse cx="3095.5" cy="416.933" rx="8.07665" ry="6.37631" transform="rotate(15 3095.5 416.933)" fill="#DCF9A8"/>
<ellipse cx="3150.76" cy="435.701" rx="8.07665" ry="6.37631" transform="rotate(15 3150.76 435.701)" fill="#DCF9A8"/>
<ellipse cx="3128.99" cy="429.871" rx="8.07665" ry="6.37631" transform="rotate(15 3128.99 429.871)" fill="#DCF9A8"/>
<ellipse cx="3163.24" cy="435.085" rx="8.07665" ry="6.37631" transform="rotate(15 3163.24 435.085)" fill="#DCF9A8"/>
<ellipse cx="3139.43" cy="428.704" rx="8.07665" ry="6.37631" transform="rotate(15 3139.43 428.704)" fill="#DCF9A8"/>
<ellipse cx="3172.93" cy="441.642" rx="8.07665" ry="6.37631" transform="rotate(15 3172.93 441.642)" fill="#DCF9A8"/>
<ellipse cx="3185.42" cy="441.027" rx="8.07665" ry="6.37631" transform="rotate(15 3185.42 441.027)" fill="#DCF9A8"/>
<ellipse cx="3216.86" cy="453.415" rx="8.07665" ry="6.37631" transform="rotate(15 3216.86 453.415)" fill="#DCF9A8"/>
<ellipse cx="3221.55" cy="450.708" rx="8.07665" ry="6.37631" transform="rotate(15 3221.55 450.708)" fill="#DCF9A8"/>
<ellipse cx="3195.1" cy="447.581" rx="8.07665" ry="6.37631" transform="rotate(15 3195.1 447.581)" fill="#DCF9A8"/>
<ellipse cx="3205.54" cy="446.417" rx="8.07665" ry="6.37631" transform="rotate(15 3205.54 446.417)" fill="#DCF9A8"/>
<ellipse cx="3102.63" cy="462.158" rx="7.21046" ry="5.69247" transform="rotate(15 3102.63 462.158)" fill="#C1F0FB"/>
<ellipse cx="3113.77" cy="461.609" rx="7.21046" ry="5.69247" transform="rotate(15 3113.77 461.609)" fill="#C1F0FB"/>
<ellipse cx="3092.51" cy="455.914" rx="7.21046" ry="5.69247" transform="rotate(15 3092.51 455.914)" fill="#C1F0FB"/>
<ellipse cx="3141.85" cy="472.667" rx="7.21046" ry="5.69247" transform="rotate(15 3141.85 472.667)" fill="#C1F0FB"/>
<ellipse cx="3122.42" cy="467.462" rx="7.21046" ry="5.69247" transform="rotate(15 3122.42 467.462)" fill="#C1F0FB"/>
<ellipse cx="3153" cy="472.119" rx="7.21046" ry="5.69247" transform="rotate(15 3153 472.119)" fill="#C1F0FB"/>
<ellipse cx="3131.74" cy="466.421" rx="7.21046" ry="5.69247" transform="rotate(15 3131.74 466.421)" fill="#C1F0FB"/>
<ellipse cx="3161.64" cy="477.972" rx="7.21046" ry="5.69247" transform="rotate(15 3161.64 477.972)" fill="#C1F0FB"/>
<ellipse cx="3172.79" cy="477.421" rx="7.21046" ry="5.69247" transform="rotate(15 3172.79 477.421)" fill="#C1F0FB"/>
<ellipse cx="3200.87" cy="488.482" rx="7.21046" ry="5.69247" transform="rotate(15 3200.87 488.482)" fill="#C1F0FB"/>
<ellipse cx="3205.05" cy="486.068" rx="7.21046" ry="5.69247" transform="rotate(15 3205.05 486.068)" fill="#C1F0FB"/>
<ellipse cx="3181.44" cy="483.275" rx="7.21046" ry="5.69247" transform="rotate(15 3181.44 483.275)" fill="#C1F0FB"/>
<ellipse cx="3190.75" cy="482.236" rx="7.21046" ry="5.69247" transform="rotate(15 3190.75 482.236)" fill="#C1F0FB"/>
<ellipse cx="3124.34" cy="379.517" rx="7.21046" ry="5.69247" transform="rotate(15 3124.34 379.517)" fill="#C1F0FB"/>
<ellipse cx="3135.48" cy="378.968" rx="7.21046" ry="5.69247" transform="rotate(15 3135.48 378.968)" fill="#C1F0FB"/>
<ellipse cx="3114.22" cy="373.271" rx="7.21046" ry="5.69247" transform="rotate(15 3114.22 373.271)" fill="#C1F0FB"/>
<ellipse cx="3163.56" cy="390.029" rx="7.21046" ry="5.69247" transform="rotate(15 3163.56 390.029)" fill="#C1F0FB"/>
<ellipse cx="3144.13" cy="384.822" rx="7.21046" ry="5.69247" transform="rotate(15 3144.13 384.822)" fill="#C1F0FB"/>
<ellipse cx="3174.71" cy="389.48" rx="7.21046" ry="5.69247" transform="rotate(15 3174.71 389.48)" fill="#C1F0FB"/>
<ellipse cx="3153.44" cy="383.783" rx="7.21046" ry="5.69247" transform="rotate(15 3153.44 383.783)" fill="#C1F0FB"/>
<ellipse cx="3183.35" cy="395.332" rx="7.21046" ry="5.69247" transform="rotate(15 3183.35 395.332)" fill="#C1F0FB"/>
<ellipse cx="3194.5" cy="394.783" rx="7.21046" ry="5.69247" transform="rotate(15 3194.5 394.783)" fill="#C1F0FB"/>
<ellipse cx="3222.57" cy="405.843" rx="7.21046" ry="5.69247" transform="rotate(15 3222.57 405.843)" fill="#C1F0FB"/>
<ellipse cx="3226.76" cy="403.425" rx="7.21046" ry="5.69247" transform="rotate(15 3226.76 403.425)" fill="#C1F0FB"/>
<ellipse cx="3203.15" cy="400.636" rx="7.21046" ry="5.69247" transform="rotate(15 3203.15 400.636)" fill="#C1F0FB"/>
<ellipse cx="3212.46" cy="399.597" rx="7.21046" ry="5.69247" transform="rotate(15 3212.46 399.597)" fill="#C1F0FB"/>
<ellipse cx="2626.06" cy="433.783" rx="101.5" ry="131.509" transform="rotate(-41.3264 2626.06 433.783)" fill="#ADE8E8"/>
<path d="M2617.23 501.78L2627.27 507.298L2636.74 498.97L2633.48 510.708L2643.52 516.225L2631.46 517.962L2628.2 529.7L2624.01 519.035L2611.95 520.772L2621.42 512.444L2617.23 501.78Z" fill="#DCF9A8"/>
<path d="M2687.31 436.237L2697.35 441.755L2706.82 433.427L2703.56 445.165L2713.6 450.682L2701.54 452.419L2698.28 464.157L2694.09 453.492L2682.03 455.229L2691.5 446.901L2687.31 436.237Z" fill="#DCF9A8"/>
<path d="M2582.44 446.18L2592.48 451.698L2601.96 443.37L2598.69 455.108L2608.73 460.626L2596.67 462.362L2593.41 474.1L2589.22 463.436L2577.16 465.173L2586.63 456.845L2582.44 446.18Z" fill="#DCF9A8"/>
<path d="M2629.78 358.331L2639.82 363.848L2649.29 355.52L2646.02 367.258L2656.07 372.776L2644.01 374.513L2640.74 386.251L2636.55 375.586L2624.49 377.323L2633.96 368.995L2629.78 358.331Z" fill="#DCF9A8"/>
<path d="M2567.99 353.112L2578.03 358.63L2587.5 350.302L2584.24 362.04L2594.28 367.557L2582.22 369.294L2578.95 381.032L2574.77 370.367L2562.71 372.104L2572.18 363.776L2567.99 353.112Z" fill="#DCF9A8"/>
<path d="M2528.6 427.713L2538.64 433.231L2548.11 424.903L2544.84 436.641L2554.88 442.159L2542.83 443.896L2539.56 455.634L2535.37 444.969L2523.31 446.706L2532.78 438.378L2528.6 427.713Z" fill="#DCF9A8"/>
<path d="M2681.86 378.35L2691.9 383.868L2701.37 375.54L2698.1 387.278L2708.15 392.796L2696.09 394.532L2692.82 406.27L2688.63 395.606L2676.57 397.343L2686.04 389.015L2681.86 378.35Z" fill="#DCF9A8"/>
<path d="M2636.24 420.032L2646.28 425.549L2655.75 417.222L2652.48 428.96L2662.53 434.477L2650.47 436.214L2647.2 447.952L2643.01 437.287L2630.95 439.024L2640.43 430.696L2636.24 420.032Z" fill="#DCF9A8"/>
<path d="M2688.05 489.651L2698.09 495.169L2707.56 486.841L2704.3 498.579L2714.34 504.096L2702.28 505.833L2699.02 517.571L2694.83 506.907L2682.77 508.643L2692.24 500.316L2688.05 489.651Z" fill="#DCF9A8"/>
<ellipse cx="2924.69" cy="65.9308" rx="13.9773" ry="20.966" fill="#FF0F0F"/>
<ellipse cx="2898.24" cy="304.044" rx="172.219" ry="223.136" fill="#FCF49C"/>
<path d="M2798.82 550.546L2826.46 488.878L2864.61 535.111L2798.82 550.546Z" fill="#E26435"/>
<path d="M2824.5 575.627L2818.15 508.349L2874.14 529.773L2824.5 575.627Z" fill="#E26435"/>
<path d="M2864.62 576.515L2820.81 525.062L2878.96 510.476L2864.62 576.515Z" fill="#E26435"/>
<rect x="2826.58" y="487.832" width="56.811" height="19.2273" transform="rotate(22.912 2826.58 487.832)" fill="#E26435"/>
<path d="M3010.01 550.544L2982.38 488.876L2944.22 535.109L3010.01 550.544Z" fill="#E26435"/>
<path d="M2984.33 575.623L2990.68 508.345L2934.7 529.769L2984.33 575.623Z" fill="#E26435"/>
<path d="M2944.21 576.503L2988.02 525.05L2929.88 510.464L2944.21 576.503Z" fill="#E26435"/>
<rect width="56.811" height="19.2273" transform="matrix(-0.921104 0.389318 0.389318 0.921104 2982.25 487.83)" fill="#E26435"/>
<path d="M2721.01 332.296L2743.87 311.065L2750.55 337.596L2721.01 332.296Z" fill="#E26435"/>
<path d="M2726.64 347.587L2736.82 317.845L2755.41 337.045L2726.64 347.587Z" fill="#E26435"/>
<path d="M2742.7 355.195L2734.73 325.426L2761.01 329.709L2742.7 355.195Z" fill="#E26435"/>
<rect width="25.3598" height="8.88356" transform="matrix(0.669586 0.742735 -0.718535 0.695491 2744.11 310.645)" fill="#E26435"/>
<path d="M3076.69 329.971L3053.71 308.872L3047.18 335.44L3076.69 329.971Z" fill="#E26435"/>
<path d="M3071.14 345.291L3060.8 315.609L3042.31 334.915L3071.14 345.291Z" fill="#E26435"/>
<path d="M3055.12 352.992L3062.93 323.178L3036.67 327.611L3055.12 352.992Z" fill="#E26435"/>
<rect width="25.3595" height="8.88333" transform="matrix(-0.665346 0.746535 0.722492 0.691379 3053.46 308.451)" fill="#E26435"/>
<path d="M2898.73 312.879L2870.24 267.217L2926.74 266.922L2898.73 312.879Z" fill="#E26435"/>
<circle cx="2848.82" cy="217.684" r="19.9676" fill="white"/>
<circle cx="2946.66" cy="217.684" r="19.9676" fill="white"/>
<circle cx="2849.82" cy="217.684" r="13.9773" fill="black"/>
<circle cx="2946.66" cy="217.684" r="13.9773" fill="black"/>
<ellipse cx="2876.27" cy="61.9384" rx="22.4635" ry="37.9384" fill="#FF0F0F"/>
<ellipse cx="2902.73" cy="61.4389" rx="19.9676" ry="30.4506" fill="#FF0F0F"/>
<ellipse cx="336.446" cy="415.44" rx="38.5532" ry="26.0638" transform="rotate(-21.6294 336.446 415.44)" fill="#B2A69C"/>
<ellipse cx="172.5" cy="329.5" rx="172.5" ry="223.5" fill="#B2A69C"/>
<circle cx="123" cy="234" r="20" fill="white"/>
<circle cx="221" cy="234" r="20" fill="white"/>
<circle cx="114" cy="240" r="10" fill="black"/>
<circle cx="230" cy="227" r="10" fill="black"/>
<ellipse cx="98.5" cy="546" rx="47.5" ry="19" fill="#B2A69C"/>
<ellipse cx="96.1013" cy="67.537" rx="63.2621" ry="25.3048" transform="rotate(60.5993 96.1013 67.537)" fill="#B2A69C"/>
<ellipse cx="59.0051" cy="51.0183" rx="41.8192" ry="16.7277" transform="rotate(109.972 59.0051 51.0183)" fill="#B2A69C"/>
<ellipse cx="32.8745" cy="13.2267" rx="32.8745" ry="13.2267" transform="matrix(0.495117 0.868826 -0.873556 0.486725 81.4463 12)" fill="#EDB5FB"/>
<ellipse cx="21.701" cy="8.75566" rx="21.701" ry="8.75566" transform="matrix(-0.344976 0.938612 -0.941082 -0.338179 82.4521 21.0332)" fill="#EDB5FB"/>
<ellipse cx="63.2621" cy="25.3048" rx="63.2621" ry="25.3048" transform="matrix(-0.490914 0.871208 0.871208 0.490914 246.113 0)" fill="#B2A69C"/>
<ellipse cx="41.8192" cy="16.7277" rx="41.8192" ry="16.7277" transform="matrix(0.341565 0.939858 0.939858 -0.341565 244.193 17.4277)" fill="#B2A69C"/>
<ellipse cx="32.8745" cy="13.2267" rx="32.8745" ry="13.2267" transform="matrix(-0.495117 0.868826 0.873556 0.486725 251.756 21)" fill="#EDB5FB"/>
<ellipse cx="21.701" cy="8.75566" rx="21.701" ry="8.75566" transform="matrix(0.344976 0.938612 0.941082 -0.338179 250.75 30.0332)" fill="#EDB5FB"/>
<ellipse cx="234.5" cy="546" rx="47.5" ry="19" fill="#B2A69C"/>
<rect x="149" y="318" width="15" height="38" fill="white"/>
<rect x="165" y="318" width="15" height="38" fill="white"/>
<path d="M139 322.25C146.103 317.103 166.364 309.82 190.586 321.861" stroke="black" stroke-width="3"/>
<path d="M853.562 410.867C846.922 439.969 833.543 463.26 813.426 480.74C793.016 498.318 769.09 507.107 741.648 507.107C715.672 507.107 696.189 500.271 683.201 486.6C670.213 472.83 663.719 452.225 663.719 424.783C663.719 399.783 669.871 374.148 682.176 347.879C694.48 321.609 710.301 300.32 729.637 284.012C743.211 272.586 757.762 266.873 773.289 266.873C782.762 266.873 795.652 270.291 811.961 277.127C831.297 285.232 840.965 293.875 840.965 303.055C840.965 308.328 838.963 313.064 834.959 317.264C830.955 321.365 826.023 323.416 820.164 323.416C817.234 323.416 810.74 320.682 800.682 315.213C790.721 309.646 781.59 306.863 773.289 306.863C764.5 306.863 752.635 316.336 737.693 335.281C715.916 362.82 705.027 392.654 705.027 424.783C705.027 441.092 707.42 452.176 712.205 458.035C717.283 464.188 727.098 467.264 741.648 467.264C756.59 467.264 769.725 463.016 781.053 454.52C793.064 445.535 801.951 432.449 807.713 415.262C785.057 417.02 765.33 421.658 748.533 429.178C745.506 430.545 742.479 431.229 739.451 431.229C733.396 431.229 728.367 428.982 724.363 424.49C720.75 420.486 718.943 415.945 718.943 410.867C718.943 395.926 736.619 385.477 771.971 379.52C791.893 376.199 815.135 374.539 841.697 374.539C847.557 374.539 852.439 376.443 856.346 380.252C860.35 384.061 862.352 388.748 862.352 394.314C862.352 401.443 859.422 406.961 853.562 410.867ZM1891.38 505.936C1866.57 505.936 1847.04 500.418 1832.79 489.383C1820.77 480.203 1814.77 469.607 1814.77 457.596C1814.77 451.443 1816.62 446.365 1820.33 442.361C1824.05 438.26 1829.17 436.209 1835.72 436.209C1844.5 436.209 1850.95 440.701 1855.05 449.686C1860.62 461.697 1873.22 467.703 1892.84 467.703C1909.64 467.703 1925.9 464.041 1941.62 456.717C1957.93 449.197 1966.09 440.945 1966.09 431.961C1966.09 419.656 1961.01 411.551 1950.85 407.645C1943.63 404.812 1929.12 403.152 1907.35 402.664C1890.45 402.273 1875.32 399.1 1861.94 393.143C1843.87 385.037 1834.98 373.416 1835.28 358.279C1835.57 339.236 1845.73 321.805 1865.74 305.984C1885.76 290.066 1907.83 282.107 1931.96 282.107C1941.53 282.107 1953.34 284.305 1967.41 288.699C1984.89 294.168 1993.63 300.467 1993.63 307.596C1993.63 312.674 1991.87 317.166 1988.35 321.072C1984.45 325.467 1979.42 327.664 1973.26 327.664C1968.67 327.664 1961.79 326.688 1952.61 324.734C1943.53 322.781 1936.64 321.805 1931.96 321.805C1919.36 321.902 1907.4 324.93 1896.07 330.887C1884.35 336.941 1878.49 343.533 1878.49 350.662C1878.49 354.373 1880.25 357.449 1883.76 359.891C1887.38 362.234 1892.75 363.895 1899.88 364.871C1912.38 365.555 1924.83 366.238 1937.23 366.922C1958.91 368.582 1976.05 374.686 1988.65 385.232C2002.51 396.951 2009.45 413.162 2009.45 433.865C2009.45 459.061 1995.09 478.152 1966.38 491.141C1944.5 501.004 1919.5 505.936 1891.38 505.936Z" fill="#FCF49C"/>
<path d="M973.749 505.936C944.843 505.936 920.233 497.635 899.921 481.033C878.241 463.26 867.401 440.262 867.401 412.039C867.401 378.836 877.802 348.562 898.602 321.219C921.942 290.457 951.337 275.076 986.786 275.076C1020.87 275.076 1046.41 282.889 1063.4 298.514C1080.39 314.139 1088.89 337.625 1088.89 368.973C1088.89 402.176 1079.32 432.254 1060.17 459.207C1038.1 490.359 1009.3 505.936 973.749 505.936ZM986.786 314.773C965.009 314.773 946.356 325.32 930.829 346.414C916.278 366.141 909.003 388.016 909.003 412.039C909.003 428.25 915.302 441.434 927.899 451.59C940.009 461.355 955.292 466.238 973.749 466.238C995.233 466.238 1013.15 455.691 1027.51 434.598C1040.69 415.359 1047.28 393.484 1047.28 368.973C1047.28 348.465 1042.69 334.207 1033.51 326.199C1024.73 318.582 1009.15 314.773 986.786 314.773ZM1780.57 501.395C1772.85 501.102 1765.09 492.02 1757.28 474.148C1752.1 462.625 1747.66 449.344 1743.95 434.305C1736.72 435.379 1724.9 436.453 1708.5 437.527C1693.07 438.602 1681.25 439.871 1673.05 441.336C1668.56 452.078 1660.74 468.24 1649.61 489.822C1645.31 496.854 1639.36 500.369 1631.74 500.369C1626.37 500.369 1621.54 498.562 1617.24 494.949C1612.94 491.238 1610.79 486.551 1610.79 480.887C1610.79 475.906 1617.92 459.012 1632.18 430.203C1630.81 427.176 1630.23 424.344 1630.42 421.707C1630.81 417.02 1635.55 413.357 1644.63 410.721C1658.5 386.697 1673.93 361.795 1690.92 336.014C1715.33 299.002 1730.37 280.496 1736.04 280.496C1746.78 280.496 1753.96 286.99 1757.57 299.979C1759.52 310.428 1762.6 326.102 1766.8 347C1772.76 375.125 1780.03 407.303 1788.62 443.533C1789.31 446.268 1791.8 452.713 1796.1 462.869C1799.61 471.268 1801.37 477.566 1801.37 481.766C1801.37 487.43 1799.22 492.166 1794.92 495.975C1790.72 499.783 1785.94 501.59 1780.57 501.395ZM1725.93 351.102C1718.31 364.188 1707.81 382.01 1694.44 404.568C1698.83 403.592 1705.67 402.811 1714.94 402.225C1725.88 401.541 1732.77 401.004 1735.6 400.613C1733.25 387.918 1730.03 371.414 1725.93 351.102ZM1736.77 287.674C1722.12 287.869 1709.77 284.158 1699.71 276.541C1689.55 269.021 1684.47 259.744 1684.47 248.709C1684.47 234.646 1690.24 223.514 1701.76 215.311C1712.6 207.693 1726.52 203.885 1743.51 203.885C1757.08 203.885 1768.75 207.303 1778.52 214.139C1789.46 221.561 1794.92 231.375 1794.92 243.582C1794.92 258.914 1788.72 270.389 1776.32 278.006C1766.26 284.256 1753.08 287.479 1736.77 287.674ZM1743.51 233.328C1726.32 233.328 1717.87 238.406 1718.17 248.562C1718.26 251.102 1720.75 253.445 1725.64 255.594C1730.62 257.645 1735.94 258.67 1741.6 258.67C1748.15 258.67 1753.03 257.4 1756.25 254.861C1759.57 252.322 1761.23 248.562 1761.23 243.582C1761.23 240.555 1759.52 238.113 1756.11 236.258C1752.79 234.305 1748.59 233.328 1743.51 233.328ZM2070.31 432.107L2070.16 493.777C2070.16 498.074 2068.94 502.029 2066.5 505.643C2063.08 510.623 2058.1 513.113 2051.56 513.113C2043.84 513.113 2037.79 509.988 2033.39 503.738C2029.97 498.855 2028.27 493.631 2028.27 488.064C2028.27 466.385 2028.95 433.816 2030.32 390.359C2031.68 346.902 2032.37 314.334 2032.37 292.654C2032.37 287.186 2034.32 282.498 2038.23 278.592C2042.13 274.686 2047.02 272.732 2052.87 272.732C2058.73 272.732 2063.57 274.686 2067.38 278.592C2071.28 282.498 2073.24 287.186 2073.24 292.654C2073.24 301.443 2072.8 313.309 2071.92 328.25C2070.84 345.633 2070.21 357.498 2070.01 363.846C2076.85 357.4 2102.19 330.252 2146.04 282.4C2150.53 277.518 2155.71 275.076 2161.57 275.076C2167.13 275.076 2171.97 277.029 2176.07 280.936C2180.27 284.842 2182.37 289.578 2182.37 295.145C2182.37 301.199 2170.75 316.922 2147.5 342.312C2130.32 360.965 2112.2 379.373 2093.16 397.537C2103.8 407.596 2114.5 417.654 2125.24 427.713C2137.74 439.236 2148.97 448.709 2158.93 456.131C2163.91 459.744 2169.28 462.479 2175.04 464.334C2185.49 467.654 2190.72 474.051 2190.72 483.523C2190.72 487.723 2189.4 491.775 2186.76 495.682C2183.15 500.955 2178.12 503.592 2171.67 503.592C2157.71 503.592 2139.59 494.461 2117.33 476.199C2110.69 470.73 2095.01 456.033 2070.31 432.107Z" fill="#93877D"/>
<path d="M1136.27 498.465C1130.51 498.367 1125.67 496.414 1121.77 492.605C1117.86 488.699 1115.91 484.012 1115.91 478.543C1115.91 468.777 1116.35 454.129 1117.23 434.598C1118.2 415.066 1118.69 400.418 1118.69 390.652C1118.69 379.812 1118.45 363.553 1117.96 341.873C1117.57 320.193 1117.37 303.934 1117.37 293.094C1117.37 287.723 1119.96 282.4 1125.14 277.127C1130.31 271.756 1135.83 269.07 1141.69 269.07C1144.91 269.07 1153.02 272.098 1166.01 278.152C1181.14 285.379 1190.13 289.432 1192.96 290.311C1221.57 299.588 1245.99 313.943 1266.2 333.377C1290.32 356.521 1302.38 382.107 1302.38 410.135C1302.38 427.029 1298.23 443.094 1289.93 458.328C1281.63 473.855 1270.25 486.307 1255.8 495.682C1239.59 506.229 1216.79 511.502 1187.39 511.502C1180.26 511.502 1172.06 510.477 1162.78 508.426C1151.55 505.887 1142.71 502.566 1136.27 498.465ZM1218.59 347.879C1209.12 341.922 1188.81 332.547 1157.66 319.754V464.773C1161.46 467.215 1165.81 469.07 1170.69 470.34C1175.67 471.512 1181.19 472.098 1187.25 472.098C1208.34 472.098 1223.48 469.168 1232.66 463.309C1241.35 457.742 1248.23 450.174 1253.31 440.604C1258.49 431.033 1261.07 421.072 1261.07 410.721C1261.07 386.502 1246.91 365.555 1218.59 347.879ZM2354.99 309.207C2353.04 309.207 2350.99 308.914 2348.84 308.328C2333.02 304.031 2317.64 301.883 2302.7 301.883C2295.38 301.883 2287.51 302.469 2279.12 303.641C2270.72 304.812 2261.78 306.57 2252.31 308.914C2252.31 321.902 2251.87 341.189 2250.99 366.775C2256.46 366.385 2275.55 364.578 2308.27 361.355C2326.92 359.5 2338.73 358.572 2343.72 358.572C2349.48 358.572 2354.41 360.428 2358.51 364.139C2362.61 367.752 2364.66 372.586 2364.66 378.641C2364.66 390.262 2358.46 396.854 2346.06 398.416C2338.25 399.002 2326.58 399.979 2311.05 401.346C2297.18 402.908 2276.28 404.812 2248.35 407.059C2247.67 419.461 2247.33 429.471 2247.33 437.088C2247.33 456.229 2248.45 467.117 2250.7 469.754C2251.77 471.023 2257.92 471.658 2269.15 471.658C2275.21 471.658 2284.34 471.512 2296.55 471.219C2308.75 470.926 2317.89 470.779 2323.94 470.779C2325.89 470.779 2328.77 470.486 2332.58 469.9C2336.39 469.314 2339.22 469.021 2341.08 469.021C2346.74 469.021 2351.58 470.633 2355.58 473.855C2360.17 477.469 2362.47 482.547 2362.47 489.09C2362.47 500.027 2356.75 506.57 2345.33 508.719C2335.56 510.574 2315.3 511.502 2284.54 511.502C2252.7 511.502 2231.95 507.205 2222.28 498.611C2211.64 489.139 2206.31 468.631 2206.31 437.088C2206.31 424.002 2207.24 404.373 2209.1 378.201C2211.05 351.932 2212.03 332.303 2212.03 319.314C2212.03 315.896 2211.54 310.867 2210.56 304.227C2209.58 297.488 2209.1 292.41 2209.1 288.992C2209.1 274.148 2215.93 266.727 2229.6 266.727C2233.9 266.727 2237.86 267.947 2241.47 270.389C2252.8 267.557 2263.54 265.457 2273.7 264.09C2283.95 262.625 2293.62 261.893 2302.7 261.893C2327.31 261.893 2346.99 264.725 2361.73 270.389C2370.72 273.807 2375.21 280.008 2375.21 288.992C2375.21 294.07 2373.45 298.562 2369.94 302.469C2366.03 306.961 2361.05 309.207 2354.99 309.207Z" fill="#BA93DB"/>
<path d="M1495.44 415.262C1493.78 415.262 1489.68 414.92 1483.14 414.236C1482.55 427.908 1482.26 450.369 1482.26 481.619C1482.26 486.795 1480.45 491.238 1476.84 494.949C1473.22 498.66 1468.63 500.516 1463.07 500.516C1457.5 500.516 1452.86 498.66 1449.15 494.949C1445.54 491.238 1443.73 486.795 1443.73 481.619V440.75C1443.73 425.613 1444.71 403.201 1446.66 373.514C1448.52 343.338 1449.49 320.828 1449.59 305.984C1449.69 280.594 1456.82 268.436 1470.98 269.51C1474.3 268.631 1478.89 267.996 1484.75 267.605C1490.61 267.117 1497.74 266.873 1506.13 266.873C1525.27 266.873 1543.24 273.074 1560.04 285.477C1578.69 299.344 1588.02 316.238 1588.02 336.16C1588.02 361.16 1578.11 381.033 1558.28 395.779C1540.7 408.768 1519.76 415.262 1495.44 415.262ZM1502.76 304.666C1499.64 304.666 1496.86 304.715 1494.42 304.812C1492.07 304.812 1490.07 304.91 1488.41 305.105C1488.41 309.695 1488.36 316.58 1488.26 325.76C1488.07 336.6 1487.14 353.494 1485.48 376.443C1490.46 377.225 1493.78 377.615 1495.44 377.615C1510.67 377.615 1523.32 374.002 1533.38 366.775C1544.12 359.061 1549.49 348.855 1549.49 336.16C1549.49 327.859 1544.46 320.486 1534.41 314.041C1524.74 307.791 1514.19 304.666 1502.76 304.666ZM2412.19 453.494C2406.72 453.494 2402.18 451.785 2398.57 448.367C2395.05 444.949 2393.3 440.652 2393.3 435.477C2393.3 431.668 2393.15 426.004 2392.86 418.484C2392.66 410.867 2392.56 405.154 2392.56 401.346C2392.56 387.869 2392.66 367.654 2392.86 340.701C2393.15 313.748 2393.3 293.533 2393.3 280.057C2393.3 274.881 2395.1 270.584 2398.72 267.166C2402.33 263.65 2406.82 261.893 2412.19 261.893C2417.56 261.893 2422.06 263.65 2425.67 267.166C2429.28 270.584 2431.09 274.881 2431.09 280.057V435.477C2431.09 440.652 2429.28 444.949 2425.67 448.367C2422.15 451.785 2417.66 453.494 2412.19 453.494ZM2411.75 506.668C2405.89 506.668 2400.43 503.543 2395.35 497.293C2390.76 491.531 2388.46 486.16 2388.46 481.18C2388.46 476.102 2390.46 471.854 2394.47 468.436C2398.47 465.018 2403.01 463.309 2408.09 463.309C2413.95 463.309 2419.37 466.434 2424.35 472.684C2428.94 478.445 2431.24 483.768 2431.24 488.65C2431.24 493.631 2429.23 497.879 2425.23 501.395C2421.32 504.91 2416.83 506.668 2411.75 506.668Z" fill="#FDC0D0"/>
</svg>
