<svg width="3256" height="614" viewBox="0 0 3256 614" fill="none" xmlns="http://www.w3.org/2000/svg">
<ellipse cx="499.754" cy="433.907" rx="110" ry="142.522" transform="rotate(39.8202 499.754 433.907)" fill="#F9CEEE"/>
<circle cx="425.142" cy="384.982" r="9.88406" transform="rotate(39.8202 425.142 384.982)" fill="#FFEBAF"/>
<circle cx="555.422" cy="493.605" r="9.88406" transform="rotate(39.8202 555.422 493.605)" fill="#FFEBAF"/>
<circle cx="483.34" cy="447.618" r="9.88406" transform="rotate(39.8202 483.34 447.618)" fill="#FFEBAF"/>
<circle cx="543.759" cy="444.859" r="9.88406" transform="rotate(39.8202 543.759 444.859)" fill="#FFEBAF"/>
<circle cx="543.858" cy="381.011" r="9.88406" transform="rotate(39.8202 543.858 381.011)" fill="#FFEBAF"/>
<circle cx="509.74" cy="339.28" r="9.88406" transform="rotate(39.8202 509.74 339.28)" fill="#FFEBAF"/>
<circle cx="425.762" cy="516.677" r="9.88406" transform="rotate(39.8202 425.762 516.677)" fill="#FFEBAF"/>
<circle cx="417.452" cy="444.989" r="9.88406" transform="rotate(39.8202 417.452 444.989)" fill="#FFEBAF"/>
<circle cx="491.898" cy="507.06" r="9.88406" transform="rotate(39.8202 491.898 507.06)" fill="#FFEBAF"/>
<circle cx="592.759" cy="401.027" r="9.88406" transform="rotate(39.8202 592.759 401.027)" fill="#FFEBAF"/>
<circle cx="484.496" cy="395.446" r="9.88406" transform="rotate(39.8202 484.496 395.446)" fill="#FFEBAF"/>
<ellipse cx="3160.43" cy="426.752" rx="73.3275" ry="95.007" transform="rotate(15 3160.43 426.752)" fill="#E0CDFF"/>
<ellipse cx="3106.82" cy="423.929" rx="8.07665" ry="6.37631" transform="rotate(15 3106.82 423.929)" fill="#DCF9A8"/>
<ellipse cx="3119.31" cy="423.312" rx="8.07665" ry="6.37631" transform="rotate(15 3119.31 423.312)" fill="#DCF9A8"/>
<ellipse cx="3095.5" cy="416.933" rx="8.07665" ry="6.37631" transform="rotate(15 3095.5 416.933)" fill="#DCF9A8"/>
<ellipse cx="3150.76" cy="435.701" rx="8.07665" ry="6.37631" transform="rotate(15 3150.76 435.701)" fill="#DCF9A8"/>
<ellipse cx="3129" cy="429.871" rx="8.07665" ry="6.37631" transform="rotate(15 3129 429.871)" fill="#DCF9A8"/>
<ellipse cx="3163.24" cy="435.085" rx="8.07665" ry="6.37631" transform="rotate(15 3163.24 435.085)" fill="#DCF9A8"/>
<ellipse cx="3139.43" cy="428.704" rx="8.07665" ry="6.37631" transform="rotate(15 3139.43 428.704)" fill="#DCF9A8"/>
<ellipse cx="3172.93" cy="441.642" rx="8.07665" ry="6.37631" transform="rotate(15 3172.93 441.642)" fill="#DCF9A8"/>
<ellipse cx="3185.42" cy="441.027" rx="8.07665" ry="6.37631" transform="rotate(15 3185.42 441.027)" fill="#DCF9A8"/>
<ellipse cx="3216.86" cy="453.415" rx="8.07665" ry="6.37631" transform="rotate(15 3216.86 453.415)" fill="#DCF9A8"/>
<ellipse cx="3221.55" cy="450.708" rx="8.07665" ry="6.37631" transform="rotate(15 3221.55 450.708)" fill="#DCF9A8"/>
<ellipse cx="3195.1" cy="447.581" rx="8.07665" ry="6.37631" transform="rotate(15 3195.1 447.581)" fill="#DCF9A8"/>
<ellipse cx="3205.54" cy="446.417" rx="8.07665" ry="6.37631" transform="rotate(15 3205.54 446.417)" fill="#DCF9A8"/>
<ellipse cx="3102.63" cy="462.156" rx="7.21046" ry="5.69247" transform="rotate(15 3102.63 462.156)" fill="#C1F0FB"/>
<ellipse cx="3113.77" cy="461.607" rx="7.21046" ry="5.69247" transform="rotate(15 3113.77 461.607)" fill="#C1F0FB"/>
<ellipse cx="3092.51" cy="455.914" rx="7.21046" ry="5.69247" transform="rotate(15 3092.51 455.914)" fill="#C1F0FB"/>
<ellipse cx="3141.85" cy="472.665" rx="7.21046" ry="5.69247" transform="rotate(15 3141.85 472.665)" fill="#C1F0FB"/>
<ellipse cx="3122.42" cy="467.46" rx="7.21046" ry="5.69247" transform="rotate(15 3122.42 467.46)" fill="#C1F0FB"/>
<ellipse cx="3153" cy="472.117" rx="7.21046" ry="5.69247" transform="rotate(15 3153 472.117)" fill="#C1F0FB"/>
<ellipse cx="3131.74" cy="466.419" rx="7.21046" ry="5.69247" transform="rotate(15 3131.74 466.419)" fill="#C1F0FB"/>
<ellipse cx="3161.65" cy="477.97" rx="7.21046" ry="5.69247" transform="rotate(15 3161.65 477.97)" fill="#C1F0FB"/>
<ellipse cx="3172.79" cy="477.421" rx="7.21046" ry="5.69247" transform="rotate(15 3172.79 477.421)" fill="#C1F0FB"/>
<ellipse cx="3200.87" cy="488.48" rx="7.21046" ry="5.69247" transform="rotate(15 3200.87 488.48)" fill="#C1F0FB"/>
<ellipse cx="3205.05" cy="486.066" rx="7.21046" ry="5.69247" transform="rotate(15 3205.05 486.066)" fill="#C1F0FB"/>
<ellipse cx="3181.44" cy="483.275" rx="7.21046" ry="5.69247" transform="rotate(15 3181.44 483.275)" fill="#C1F0FB"/>
<ellipse cx="3190.76" cy="482.234" rx="7.21046" ry="5.69247" transform="rotate(15 3190.76 482.234)" fill="#C1F0FB"/>
<ellipse cx="3124.34" cy="379.517" rx="7.21046" ry="5.69247" transform="rotate(15 3124.34 379.517)" fill="#C1F0FB"/>
<ellipse cx="3135.48" cy="378.968" rx="7.21046" ry="5.69247" transform="rotate(15 3135.48 378.968)" fill="#C1F0FB"/>
<ellipse cx="3114.22" cy="373.271" rx="7.21046" ry="5.69247" transform="rotate(15 3114.22 373.271)" fill="#C1F0FB"/>
<ellipse cx="3163.56" cy="390.029" rx="7.21046" ry="5.69247" transform="rotate(15 3163.56 390.029)" fill="#C1F0FB"/>
<ellipse cx="3144.13" cy="384.822" rx="7.21046" ry="5.69247" transform="rotate(15 3144.13 384.822)" fill="#C1F0FB"/>
<ellipse cx="3174.71" cy="389.48" rx="7.21046" ry="5.69247" transform="rotate(15 3174.71 389.48)" fill="#C1F0FB"/>
<ellipse cx="3153.44" cy="383.783" rx="7.21046" ry="5.69247" transform="rotate(15 3153.44 383.783)" fill="#C1F0FB"/>
<ellipse cx="3183.35" cy="395.332" rx="7.21046" ry="5.69247" transform="rotate(15 3183.35 395.332)" fill="#C1F0FB"/>
<ellipse cx="3194.5" cy="394.783" rx="7.21046" ry="5.69247" transform="rotate(15 3194.5 394.783)" fill="#C1F0FB"/>
<ellipse cx="3222.57" cy="405.843" rx="7.21046" ry="5.69247" transform="rotate(15 3222.57 405.843)" fill="#C1F0FB"/>
<ellipse cx="3226.76" cy="403.425" rx="7.21046" ry="5.69247" transform="rotate(15 3226.76 403.425)" fill="#C1F0FB"/>
<ellipse cx="3203.15" cy="400.636" rx="7.21046" ry="5.69247" transform="rotate(15 3203.15 400.636)" fill="#C1F0FB"/>
<ellipse cx="3212.46" cy="399.597" rx="7.21046" ry="5.69247" transform="rotate(15 3212.46 399.597)" fill="#C1F0FB"/>
<ellipse cx="2626.06" cy="433.783" rx="101.5" ry="131.509" transform="rotate(-41.3264 2626.06 433.783)" fill="#C1F0FB"/>
<path d="M2617.23 501.78L2627.27 507.298L2636.74 498.97L2633.48 510.708L2643.52 516.225L2631.46 517.962L2628.2 529.7L2624.01 519.035L2611.95 520.772L2621.42 512.444L2617.23 501.78Z" fill="#DCF9A8"/>
<path d="M2687.31 436.237L2697.35 441.755L2706.83 433.427L2703.56 445.165L2713.6 450.682L2701.54 452.419L2698.28 464.157L2694.09 453.492L2682.03 455.229L2691.5 446.901L2687.31 436.237Z" fill="#DCF9A8"/>
<path d="M2582.44 446.18L2592.49 451.698L2601.96 443.37L2598.69 455.108L2608.73 460.626L2596.67 462.362L2593.41 474.1L2589.22 463.436L2577.16 465.173L2586.63 456.845L2582.44 446.18Z" fill="#DCF9A8"/>
<path d="M2629.78 358.331L2639.82 363.848L2649.29 355.52L2646.02 367.258L2656.07 372.776L2644.01 374.513L2640.74 386.251L2636.55 375.586L2624.49 377.323L2633.97 368.995L2629.78 358.331Z" fill="#DCF9A8"/>
<path d="M2567.99 353.112L2578.03 358.63L2587.5 350.302L2584.24 362.04L2594.28 367.557L2582.22 369.294L2578.96 381.032L2574.77 370.367L2562.71 372.104L2572.18 363.776L2567.99 353.112Z" fill="#DCF9A8"/>
<path d="M2528.6 427.713L2538.64 433.231L2548.11 424.903L2544.84 436.641L2554.89 442.159L2542.83 443.896L2539.56 455.634L2535.37 444.969L2523.31 446.706L2532.78 438.378L2528.6 427.713Z" fill="#DCF9A8"/>
<path d="M2681.86 378.35L2691.9 383.868L2701.37 375.54L2698.1 387.278L2708.15 392.796L2696.09 394.532L2692.82 406.27L2688.63 395.606L2676.58 397.343L2686.05 389.015L2681.86 378.35Z" fill="#DCF9A8"/>
<path d="M2636.24 420.032L2646.28 425.549L2655.75 417.222L2652.49 428.96L2662.53 434.477L2650.47 436.214L2647.2 447.952L2643.01 437.287L2630.96 439.024L2640.43 430.696L2636.24 420.032Z" fill="#DCF9A8"/>
<path d="M2688.05 489.651L2698.1 495.169L2707.57 486.841L2704.3 498.579L2714.34 504.096L2702.28 505.833L2699.02 517.571L2694.83 506.907L2682.77 508.643L2692.24 500.316L2688.05 489.651Z" fill="#DCF9A8"/>
<ellipse cx="2924.7" cy="65.9308" rx="13.9773" ry="20.966" fill="#FF0F0F"/>
<ellipse cx="2898.24" cy="304.044" rx="172.219" ry="223.136" fill="#FFEBAF"/>
<path d="M2798.82 550.546L2826.46 488.878L2864.61 535.111L2798.82 550.546Z" fill="#E26435"/>
<path d="M2824.5 575.627L2818.15 508.349L2874.14 529.773L2824.5 575.627Z" fill="#E26435"/>
<path d="M2864.62 576.515L2820.81 525.062L2878.96 510.476L2864.62 576.515Z" fill="#E26435"/>
<rect x="2826.58" y="487.832" width="56.811" height="19.2273" transform="rotate(22.912 2826.58 487.832)" fill="#E26435"/>
<path d="M3010.01 550.544L2982.38 488.876L2944.22 535.109L3010.01 550.544Z" fill="#E26435"/>
<path d="M2984.34 575.623L2990.68 508.345L2934.7 529.769L2984.34 575.623Z" fill="#E26435"/>
<path d="M2944.21 576.503L2988.02 525.05L2929.88 510.464L2944.21 576.503Z" fill="#E26435"/>
<rect width="56.811" height="19.2273" transform="matrix(-0.921104 0.389318 0.389318 0.921104 2982.26 487.83)" fill="#E26435"/>
<path d="M2721.01 332.296L2743.87 311.065L2750.55 337.596L2721.01 332.296Z" fill="#E26435"/>
<path d="M2726.64 347.587L2736.82 317.845L2755.41 337.045L2726.64 347.587Z" fill="#E26435"/>
<path d="M2742.71 355.195L2734.73 325.426L2761.02 329.709L2742.71 355.195Z" fill="#E26435"/>
<rect width="25.3598" height="8.88356" transform="matrix(0.669586 0.742735 -0.718535 0.695491 2744.12 310.645)" fill="#E26435"/>
<path d="M3076.69 329.971L3053.71 308.872L3047.18 335.44L3076.69 329.971Z" fill="#E26435"/>
<path d="M3071.14 345.291L3060.8 315.609L3042.32 334.915L3071.14 345.291Z" fill="#E26435"/>
<path d="M3055.12 352.992L3062.93 323.178L3036.67 327.611L3055.12 352.992Z" fill="#E26435"/>
<rect width="25.3595" height="8.88333" transform="matrix(-0.665346 0.746535 0.722492 0.691379 3053.46 308.451)" fill="#E26435"/>
<path d="M2898.73 312.879L2870.24 267.217L2926.75 266.922L2898.73 312.879Z" fill="#E26435"/>
<circle cx="2848.82" cy="217.684" r="19.9676" fill="white"/>
<circle cx="2946.66" cy="217.684" r="19.9676" fill="white"/>
<circle cx="2849.82" cy="217.684" r="13.9773" fill="black"/>
<circle cx="2946.66" cy="217.684" r="13.9773" fill="black"/>
<ellipse cx="2876.28" cy="61.9384" rx="22.4635" ry="37.9384" fill="#FF0F0F"/>
<ellipse cx="2902.73" cy="61.4389" rx="19.9676" ry="30.4506" fill="#FF0F0F"/>
<ellipse cx="336.446" cy="415.44" rx="38.5532" ry="26.0638" transform="rotate(-21.6294 336.446 415.44)" fill="#D9D9D9"/>
<ellipse cx="172.5" cy="329.5" rx="172.5" ry="223.5" fill="#D9D9D9"/>
<circle cx="123" cy="234" r="20" fill="white"/>
<circle cx="221" cy="234" r="20" fill="white"/>
<circle cx="114" cy="240" r="10" fill="black"/>
<circle cx="230" cy="227" r="10" fill="black"/>
<ellipse cx="98.5" cy="546" rx="47.5" ry="19" fill="#D9D9D9"/>
<ellipse cx="96.1013" cy="67.537" rx="63.2621" ry="25.3048" transform="rotate(60.5993 96.1013 67.537)" fill="#D9D9D9"/>
<ellipse cx="59.0051" cy="51.0183" rx="41.8192" ry="16.7277" transform="rotate(109.972 59.0051 51.0183)" fill="#D9D9D9"/>
<ellipse cx="32.8745" cy="13.2267" rx="32.8745" ry="13.2267" transform="matrix(0.495117 0.868826 -0.873556 0.486725 81.4463 12)" fill="#EDB5FB"/>
<ellipse cx="21.701" cy="8.75566" rx="21.701" ry="8.75566" transform="matrix(-0.344976 0.938612 -0.941082 -0.338179 82.4521 21.0332)" fill="#EDB5FB"/>
<ellipse cx="63.2621" cy="25.3048" rx="63.2621" ry="25.3048" transform="matrix(-0.490914 0.871208 0.871208 0.490914 246.113 0)" fill="#D9D9D9"/>
<ellipse cx="41.8192" cy="16.7277" rx="41.8192" ry="16.7277" transform="matrix(0.341565 0.939858 0.939858 -0.341565 244.193 17.4277)" fill="#D9D9D9"/>
<ellipse cx="32.8745" cy="13.2267" rx="32.8745" ry="13.2267" transform="matrix(-0.495117 0.868826 0.873556 0.486725 251.756 21)" fill="#EDB5FB"/>
<ellipse cx="21.701" cy="8.75566" rx="21.701" ry="8.75566" transform="matrix(0.344976 0.938612 0.941082 -0.338179 250.75 30.0332)" fill="#EDB5FB"/>
<ellipse cx="234.5" cy="546" rx="47.5" ry="19" fill="#D9D9D9"/>
<rect x="149" y="318" width="15" height="38" fill="white"/>
<rect x="165" y="318" width="15" height="38" fill="white"/>
<path d="M139 322.25C146.103 317.103 166.364 309.82 190.586 321.861" stroke="black" stroke-width="3"/>
<path d="M853.557 410.867C846.916 439.969 833.537 463.26 813.42 480.74C793.01 498.318 769.084 507.107 741.643 507.107C715.666 507.107 696.184 500.271 683.195 486.6C670.207 472.83 663.713 452.225 663.713 424.783C663.713 399.783 669.865 374.148 682.17 347.879C694.475 321.609 710.295 300.32 729.631 284.012C743.205 272.586 757.756 266.873 773.283 266.873C782.756 266.873 795.646 270.291 811.955 277.127C831.291 285.232 840.959 293.875 840.959 303.055C840.959 308.328 838.957 313.064 834.953 317.264C830.949 321.365 826.018 323.416 820.158 323.416C817.229 323.416 810.734 320.682 800.676 315.213C790.715 309.646 781.584 306.863 773.283 306.863C764.494 306.863 752.629 316.336 737.688 335.281C715.91 362.82 705.021 392.654 705.021 424.783C705.021 441.092 707.414 452.176 712.199 458.035C717.277 464.188 727.092 467.264 741.643 467.264C756.584 467.264 769.719 463.016 781.047 454.52C793.059 445.535 801.945 432.449 807.707 415.262C785.051 417.02 765.324 421.658 748.527 429.178C745.5 430.545 742.473 431.229 739.445 431.229C733.391 431.229 728.361 428.982 724.357 424.49C720.744 420.486 718.938 415.945 718.938 410.867C718.938 395.926 736.613 385.477 771.965 379.52C791.887 376.199 815.129 374.539 841.691 374.539C847.551 374.539 852.434 376.443 856.34 380.252C860.344 384.061 862.346 388.748 862.346 394.314C862.346 401.443 859.416 406.961 853.557 410.867ZM1891.37 505.936C1866.57 505.936 1847.04 500.418 1832.78 489.383C1820.77 480.203 1814.76 469.607 1814.76 457.596C1814.76 451.443 1816.62 446.365 1820.33 442.361C1824.04 438.26 1829.17 436.209 1835.71 436.209C1844.5 436.209 1850.94 440.701 1855.05 449.686C1860.61 461.697 1873.21 467.703 1892.84 467.703C1909.64 467.703 1925.9 464.041 1941.62 456.717C1957.93 449.197 1966.08 440.945 1966.08 431.961C1966.08 419.656 1961 411.551 1950.85 407.645C1943.62 404.812 1929.12 403.152 1907.34 402.664C1890.45 402.273 1875.31 399.1 1861.93 393.143C1843.86 385.037 1834.98 373.416 1835.27 358.279C1835.56 339.236 1845.72 321.805 1865.74 305.984C1885.76 290.066 1907.83 282.107 1931.95 282.107C1941.52 282.107 1953.34 284.305 1967.4 288.699C1984.88 294.168 1993.62 300.467 1993.62 307.596C1993.62 312.674 1991.86 317.166 1988.35 321.072C1984.44 325.467 1979.41 327.664 1973.26 327.664C1968.67 327.664 1961.78 326.688 1952.6 324.734C1943.52 322.781 1936.64 321.805 1931.95 321.805C1919.35 321.902 1907.39 324.93 1896.06 330.887C1884.34 336.941 1878.48 343.533 1878.48 350.662C1878.48 354.373 1880.24 357.449 1883.76 359.891C1887.37 362.234 1892.74 363.895 1899.87 364.871C1912.37 365.555 1924.82 366.238 1937.22 366.922C1958.9 368.582 1976.04 374.686 1988.64 385.232C2002.51 396.951 2009.44 413.162 2009.44 433.865C2009.44 459.061 1995.08 478.152 1966.37 491.141C1944.5 501.004 1919.5 505.936 1891.37 505.936Z" fill="#FFEBAF"/>
<path d="M973.743 505.936C944.837 505.936 920.227 497.635 899.915 481.033C878.235 463.26 867.395 440.262 867.395 412.039C867.395 378.836 877.796 348.562 898.596 321.219C921.936 290.457 951.331 275.076 986.78 275.076C1020.86 275.076 1046.4 282.889 1063.39 298.514C1080.38 314.139 1088.88 337.625 1088.88 368.973C1088.88 402.176 1079.31 432.254 1060.17 459.207C1038.1 490.359 1009.29 505.936 973.743 505.936ZM986.78 314.773C965.003 314.773 946.35 325.32 930.823 346.414C916.272 366.141 908.997 388.016 908.997 412.039C908.997 428.25 915.296 441.434 927.893 451.59C940.003 461.355 955.286 466.238 973.743 466.238C995.227 466.238 1013.15 455.691 1027.5 434.598C1040.69 415.359 1047.28 393.484 1047.28 368.973C1047.28 348.465 1042.69 334.207 1033.51 326.199C1024.72 318.582 1009.14 314.773 986.78 314.773ZM2070.3 432.107L2070.15 493.777C2070.15 498.074 2068.93 502.029 2066.49 505.643C2063.07 510.623 2058.09 513.113 2051.55 513.113C2043.84 513.113 2037.78 509.988 2033.39 503.738C2029.97 498.855 2028.26 493.631 2028.26 488.064C2028.26 466.385 2028.94 433.816 2030.31 390.359C2031.68 346.902 2032.36 314.334 2032.36 292.654C2032.36 287.186 2034.31 282.498 2038.22 278.592C2042.13 274.686 2047.01 272.732 2052.87 272.732C2058.73 272.732 2063.56 274.686 2067.37 278.592C2071.28 282.498 2073.23 287.186 2073.23 292.654C2073.23 301.443 2072.79 313.309 2071.91 328.25C2070.84 345.633 2070.2 357.498 2070.01 363.846C2076.84 357.4 2102.19 330.252 2146.03 282.4C2150.53 277.518 2155.7 275.076 2161.56 275.076C2167.13 275.076 2171.96 277.029 2176.06 280.936C2180.26 284.842 2182.36 289.578 2182.36 295.145C2182.36 301.199 2170.74 316.922 2147.5 342.312C2130.31 360.965 2112.19 379.373 2093.15 397.537C2103.8 407.596 2114.49 417.654 2125.23 427.713C2137.73 439.236 2148.96 448.709 2158.92 456.131C2163.9 459.744 2169.28 462.479 2175.04 464.334C2185.49 467.654 2190.71 474.051 2190.71 483.523C2190.71 487.723 2189.39 491.775 2186.76 495.682C2183.14 500.955 2178.11 503.592 2171.67 503.592C2157.7 503.592 2139.59 494.461 2117.32 476.199C2110.68 470.73 2095.01 456.033 2070.3 432.107Z" fill="#DCF9A8"/>
<path d="M1136.26 498.465C1130.5 498.367 1125.67 496.414 1121.76 492.605C1117.86 488.699 1115.9 484.012 1115.9 478.543C1115.9 468.777 1116.34 454.129 1117.22 434.598C1118.2 415.066 1118.69 400.418 1118.69 390.652C1118.69 379.812 1118.44 363.553 1117.95 341.873C1117.56 320.193 1117.37 303.934 1117.37 293.094C1117.37 287.723 1119.95 282.4 1125.13 277.127C1130.31 271.756 1135.82 269.07 1141.68 269.07C1144.91 269.07 1153.01 272.098 1166 278.152C1181.14 285.379 1190.12 289.432 1192.95 290.311C1221.57 299.588 1245.98 313.943 1266.19 333.377C1290.32 356.521 1302.38 382.107 1302.38 410.135C1302.38 427.029 1298.23 443.094 1289.93 458.328C1281.62 473.855 1270.25 486.307 1255.79 495.682C1239.58 506.229 1216.78 511.502 1187.39 511.502C1180.26 511.502 1172.05 510.477 1162.78 508.426C1151.55 505.887 1142.71 502.566 1136.26 498.465ZM1218.59 347.879C1209.11 341.922 1188.8 332.547 1157.65 319.754V464.773C1161.46 467.215 1165.8 469.07 1170.69 470.34C1175.67 471.512 1181.19 472.098 1187.24 472.098C1208.33 472.098 1223.47 469.168 1232.65 463.309C1241.34 457.742 1248.23 450.174 1253.3 440.604C1258.48 431.033 1261.07 421.072 1261.07 410.721C1261.07 386.502 1246.91 365.555 1218.59 347.879ZM2354.99 309.207C2353.04 309.207 2350.98 308.914 2348.84 308.328C2333.02 304.031 2317.64 301.883 2302.69 301.883C2295.37 301.883 2287.51 302.469 2279.11 303.641C2270.71 304.812 2261.78 306.57 2252.3 308.914C2252.3 321.902 2251.86 341.189 2250.98 366.775C2256.45 366.385 2275.55 364.578 2308.26 361.355C2326.91 359.5 2338.73 358.572 2343.71 358.572C2349.47 358.572 2354.4 360.428 2358.5 364.139C2362.61 367.752 2364.66 372.586 2364.66 378.641C2364.66 390.262 2358.46 396.854 2346.05 398.416C2338.24 399.002 2326.57 399.979 2311.04 401.346C2297.18 402.908 2276.28 404.812 2248.35 407.059C2247.66 419.461 2247.32 429.471 2247.32 437.088C2247.32 456.229 2248.45 467.117 2250.69 469.754C2251.77 471.023 2257.92 471.658 2269.15 471.658C2275.2 471.658 2284.33 471.512 2296.54 471.219C2308.75 470.926 2317.88 470.779 2323.93 470.779C2325.89 470.779 2328.77 470.486 2332.58 469.9C2336.39 469.314 2339.22 469.021 2341.07 469.021C2346.74 469.021 2351.57 470.633 2355.57 473.855C2360.16 477.469 2362.46 482.547 2362.46 489.09C2362.46 500.027 2356.75 506.57 2345.32 508.719C2335.56 510.574 2315.29 511.502 2284.53 511.502C2252.69 511.502 2231.94 507.205 2222.27 498.611C2211.63 489.139 2206.31 468.631 2206.31 437.088C2206.31 424.002 2207.23 404.373 2209.09 378.201C2211.04 351.932 2212.02 332.303 2212.02 319.314C2212.02 315.896 2211.53 310.867 2210.56 304.227C2209.58 297.488 2209.09 292.41 2209.09 288.992C2209.09 274.148 2215.93 266.727 2229.6 266.727C2233.89 266.727 2237.85 267.947 2241.46 270.389C2252.79 267.557 2263.53 265.457 2273.69 264.09C2283.94 262.625 2293.61 261.893 2302.69 261.893C2327.3 261.893 2346.98 264.725 2361.73 270.389C2370.71 273.807 2375.2 280.008 2375.2 288.992C2375.2 294.07 2373.45 298.562 2369.93 302.469C2366.02 306.961 2361.04 309.207 2354.99 309.207Z" fill="#E0CDFF"/>
<path d="M1495.43 415.262C1493.77 415.262 1489.67 414.92 1483.13 414.236C1482.54 427.908 1482.25 450.369 1482.25 481.619C1482.25 486.795 1480.44 491.238 1476.83 494.949C1473.22 498.66 1468.63 500.516 1463.06 500.516C1457.5 500.516 1452.86 498.66 1449.15 494.949C1445.53 491.238 1443.73 486.795 1443.73 481.619V440.75C1443.73 425.613 1444.7 403.201 1446.66 373.514C1448.51 343.338 1449.49 320.828 1449.59 305.984C1449.68 280.594 1456.81 268.436 1470.97 269.51C1474.29 268.631 1478.88 267.996 1484.74 267.605C1490.6 267.117 1497.73 266.873 1506.13 266.873C1525.27 266.873 1543.24 273.074 1560.03 285.477C1578.69 299.344 1588.01 316.238 1588.01 336.16C1588.01 361.16 1578.1 381.033 1558.28 395.779C1540.7 408.768 1519.75 415.262 1495.43 415.262ZM1502.76 304.666C1499.63 304.666 1496.85 304.715 1494.41 304.812C1492.07 304.812 1490.06 304.91 1488.4 305.105C1488.4 309.695 1488.35 316.58 1488.26 325.76C1488.06 336.6 1487.13 353.494 1485.47 376.443C1490.45 377.225 1493.77 377.615 1495.43 377.615C1510.67 377.615 1523.32 374.002 1533.37 366.775C1544.12 359.061 1549.49 348.855 1549.49 336.16C1549.49 327.859 1544.46 320.486 1534.4 314.041C1524.73 307.791 1514.18 304.666 1502.76 304.666ZM2412.19 453.494C2406.72 453.494 2402.18 451.785 2398.56 448.367C2395.05 444.949 2393.29 440.652 2393.29 435.477C2393.29 431.668 2393.14 426.004 2392.85 418.484C2392.66 410.867 2392.56 405.154 2392.56 401.346C2392.56 387.869 2392.66 367.654 2392.85 340.701C2393.14 313.748 2393.29 293.533 2393.29 280.057C2393.29 274.881 2395.1 270.584 2398.71 267.166C2402.32 263.65 2406.82 261.893 2412.19 261.893C2417.56 261.893 2422.05 263.65 2425.66 267.166C2429.28 270.584 2431.08 274.881 2431.08 280.057V435.477C2431.08 440.652 2429.28 444.949 2425.66 448.367C2422.15 451.785 2417.66 453.494 2412.19 453.494ZM2411.75 506.668C2405.89 506.668 2400.42 503.543 2395.34 497.293C2390.75 491.531 2388.46 486.16 2388.46 481.18C2388.46 476.102 2390.46 471.854 2394.46 468.436C2398.47 465.018 2403.01 463.309 2408.09 463.309C2413.94 463.309 2419.36 466.434 2424.34 472.684C2428.93 478.445 2431.23 483.768 2431.23 488.65C2431.23 493.631 2429.23 497.879 2425.22 501.395C2421.32 504.91 2416.83 506.668 2411.75 506.668Z" fill="#C1F0FB"/>
<path d="M1780.56 501.395C1772.85 501.102 1765.08 492.02 1757.27 474.148C1752.1 462.625 1747.65 449.344 1743.94 434.305C1736.71 435.379 1724.9 436.453 1708.49 437.527C1693.06 438.602 1681.25 439.871 1673.04 441.336C1668.55 452.078 1660.74 468.24 1649.61 489.822C1645.31 496.854 1639.35 500.369 1631.73 500.369C1626.36 500.369 1621.53 498.562 1617.23 494.949C1612.94 491.238 1610.79 486.551 1610.79 480.887C1610.79 475.906 1617.92 459.012 1632.17 430.203C1630.81 427.176 1630.22 424.344 1630.42 421.707C1630.81 417.02 1635.54 413.357 1644.62 410.721C1658.49 386.697 1673.92 361.795 1690.91 336.014C1715.33 299.002 1730.37 280.496 1736.03 280.496C1746.77 280.496 1753.95 286.99 1757.56 299.979C1759.52 310.428 1762.59 326.102 1766.79 347C1772.75 375.125 1780.03 407.303 1788.62 443.533C1789.3 446.268 1791.79 452.713 1796.09 462.869C1799.61 471.268 1801.36 477.566 1801.36 481.766C1801.36 487.43 1799.21 492.166 1794.92 495.975C1790.72 499.783 1785.93 501.59 1780.56 501.395ZM1725.92 351.102C1718.31 364.188 1707.81 382.01 1694.43 404.568C1698.82 403.592 1705.66 402.811 1714.94 402.225C1725.88 401.541 1732.76 401.004 1735.59 400.613C1733.25 387.918 1730.03 371.414 1725.92 351.102ZM1736.76 287.674C1722.12 287.869 1709.76 284.158 1699.7 276.541C1689.55 269.021 1684.47 259.744 1684.47 248.709C1684.47 234.646 1690.23 223.514 1701.75 215.311C1712.59 207.693 1726.51 203.885 1743.5 203.885C1757.08 203.885 1768.75 207.303 1778.51 214.139C1789.45 221.561 1794.92 231.375 1794.92 243.582C1794.92 258.914 1788.72 270.389 1776.31 278.006C1766.26 284.256 1753.07 287.479 1736.76 287.674ZM1743.5 233.328C1726.31 233.328 1717.87 238.406 1718.16 248.562C1718.26 251.102 1720.75 253.445 1725.63 255.594C1730.61 257.645 1735.93 258.67 1741.6 258.67C1748.14 258.67 1753.02 257.4 1756.25 254.861C1759.57 252.322 1761.23 248.562 1761.23 243.582C1761.23 240.555 1759.52 238.113 1756.1 236.258C1752.78 234.305 1748.58 233.328 1743.5 233.328Z" fill="#F9CEEE"/>
</svg>
